<svg viewBox="0 0 512 512" xml:space="preserve" xmlns="http://www.w3.org/2000/svg"><path d="M436.766 118.986H328.561c-35.888 0-60.803 23.242-72.561 37.25-11.758-14.008-36.673-37.25-72.561-37.25H75.234a9 9 0 0 0-9 9v123.569c0 4.971 4.029 9 9 9s9-4.029 9-9V136.986h99.205c34.811 0 57.916 29.113 63.561 37.041v183.104c-17.751-14.499-47.124-24.589-87.811-30.11-31.079-4.217-60.458-4.641-74.955-4.53v-28.268c0-4.971-4.029-9-9-9s-9 4.029-9 9v89.791a9 9 0 0 0 9 9h180.747l.013.001h.012l.013-.001h180.747a9 9 0 0 0 9-9V127.986a9 9 0 0 0-9-9zm-108.205 18h99.205v185.512c-1.13-.008-2.352-.013-3.658-.013-19.682 0-58.048 1.079-93.86 8.301-29.148 5.878-50.961 14.706-65.247 26.37V174.011c5.617-7.952 28.559-37.025 63.56-37.025zM84.234 340.503c13.91-.097 42.704.306 72.534 4.354 40.69 5.522 69.337 16.03 83.035 30.156H84.234v-34.51zm187.834 34.511c24.054-25.207 91.482-34.528 152.039-34.528 1.313 0 2.53.005 3.658.014v34.515H272.068z" fill="#ffffff" class="fill-000000"></path><path d="M324.742 185.996h63.648c4.971 0 9-4.029 9-9s-4.029-9-9-9h-63.648c-4.971 0-9 4.029-9 9s4.029 9 9 9zM324.742 240.098h63.648c4.971 0 9-4.029 9-9s-4.029-9-9-9h-63.648c-4.971 0-9 4.029-9 9s4.029 9 9 9zM324.742 294.201h63.648c4.971 0 9-4.029 9-9s-4.029-9-9-9h-63.648c-4.971 0-9 4.029-9 9s4.029 9 9 9zM123.607 185.996h63.65c4.971 0 9-4.029 9-9s-4.029-9-9-9h-63.65a9 9 0 0 0 0 18zM123.607 240.098h63.65c4.971 0 9-4.029 9-9s-4.029-9-9-9h-63.65a9 9 0 0 0 0 18zM123.607 294.201h63.65c4.971 0 9-4.029 9-9s-4.029-9-9-9h-63.65a9 9 0 0 0 0 18z" fill="#ffffff" class="fill-000000"></path></svg>