<svg viewBox="0 0 32 32" xmlns="http://www.w3.org/2000/svg"><path d="m28.82 8.69-11-6.13a3.13 3.13 0 0 0-3.58 0l-11 6.13a2.85 2.85 0 0 0 0 4.62l.11.07L7 15.44V25c0 1.57 2.26 5 9 5s9-3.43 9-5v-9.56l3-1.67V25a1 1 0 0 0 2 0V11a2.87 2.87 0 0 0-1.18-2.31ZM23 25c0 .39-1.41 3-7 3s-7-2.61-7-3v-8.45l5.2 2.89a3.17 3.17 0 0 0 3.6 0l5.2-2.89Zm4.67-13.33-11 6.12a1.14 1.14 0 0 1-1.32 0l-11-6.12a.85.85 0 0 1 0-1.34s11-6.09 11-6.12a1.17 1.17 0 0 1 1.34 0s11 6.12 11 6.12a.85.85 0 0 1 0 1.34Z" data-name="cap, graduation, hat, graduate, university, school, student, ceremony, diploma, college" fill="#ffffff" class="fill-000000"></path></svg>